<svg width="22" height="32" viewBox="0 0 22 32" fill="none" xmlns="http://www.w3.org/2000/svg">
<path d="M18.9334 0.264404H3.02932C1.72644 0.264404 0.670654 1.32016 0.670654 2.62303V29.5342C0.670654 30.8371 1.72644 31.8928 3.02932 31.8928H18.9334C20.2363 31.8928 21.2921 30.8371 21.2921 29.5342V2.62303C21.2921 1.34262 20.2138 0.264404 18.9334 0.264404Z" fill="white"/>
<path d="M20.1466 4.06079H1.79395V26.2546H20.1466V4.06079Z" fill="#404040"/>
<path d="M14.7328 1.6792H7.20758C6.91556 1.6792 6.646 1.9263 6.646 2.24078C6.646 2.55527 6.89309 2.80237 7.20758 2.80237H14.7328C15.0249 2.80237 15.2944 2.55527 15.2944 2.24078C15.2944 1.94876 15.0473 1.6792 14.7328 1.6792Z" fill="#6639A6"/>
<path d="M9.18457 28.9277C9.18457 27.9393 9.99326 27.1082 10.9816 27.1082C11.97 27.1082 12.8012 27.9168 12.8012 28.9277C12.8012 29.9161 11.9925 30.7247 10.9816 30.7247C9.99326 30.7472 9.18457 29.9385 9.18457 28.9277Z" fill="#6639A6"/>
</svg>
