<svg width="10" height="6" viewBox="0 0 10 6" fill="none" xmlns="http://www.w3.org/2000/svg">
<path fill-rule="evenodd" clip-rule="evenodd" d="M1.19831 0.600069C1.45655 0.40318 1.8255 0.452912 2.02239 0.711149L4.95632 4.55926C5.02936 4.60761 5.13601 4.60761 5.20906 4.55926L8.14299 0.711149C8.33987 0.452912 8.70883 0.40318 8.96706 0.600069C9.2253 0.796957 9.27503 1.16591 9.07814 1.42414L6.13409 5.28553C6.09973 5.33059 6.04774 5.39295 5.97573 5.45262C5.46263 5.87777 4.70274 5.87777 4.18964 5.45262C4.11763 5.39295 4.06564 5.33059 4.03128 5.28553L1.08723 1.42414C0.890341 1.16591 0.940074 0.796957 1.19831 0.600069Z" fill="white"/>
</svg>
