<svg width="9" height="6" viewBox="0 0 9 6" fill="none" xmlns="http://www.w3.org/2000/svg">
<path fill-rule="evenodd" clip-rule="evenodd" d="M8.20257 5.3157C7.94433 5.51259 7.57538 5.46286 7.37849 5.20462L4.44456 1.35651C4.37152 1.30816 4.26487 1.30816 4.19182 1.35651L1.25789 5.20462C1.061 5.46286 0.692053 5.51259 0.433817 5.3157C0.17558 5.11881 0.125848 4.74986 0.322736 4.49163L3.26679 0.63024C3.30115 0.58518 3.35314 0.522818 3.42515 0.463149C3.93825 0.0379996 4.69814 0.0379996 5.21123 0.463149C5.28325 0.522818 5.33524 0.58518 5.3696 0.63024L8.31365 4.49163C8.51054 4.74986 8.46081 5.11881 8.20257 5.3157Z" fill="#3C4242"/>
</svg>
